<svg width="19" height="24" viewBox="0 0 19 24" fill="none" xmlns="http://www.w3.org/2000/svg">
<path fill-rule="evenodd" clip-rule="evenodd" d="M7.73077 0L7.55769 0.721154C7.28005 1.96514 5.49519 4.01322 3.66346 6.51923C1.83173 9.02524 0 12.1478 0 16.0673C0 17.9171 0.566105 19.893 1.96154 21.4327C3.35697 22.9724 5.58173 24 8.59615 24C8.72957 24 8.84135 23.9748 8.97115 23.9712C9.05769 23.9748 9.14062 24 9.23077 24C9.51202 24 9.77524 23.9675 10.0385 23.9423C10.1178 23.9351 10.1899 23.9207 10.2692 23.9135C13.3594 23.6575 15.4111 22.7055 16.6731 21.2885C18.155 19.6262 18.4615 17.5168 18.4615 15.6923C18.4615 11.5709 16.0889 7.73798 13.7885 4.90385C11.488 2.06971 9.17308 0.201923 9.17308 0.201923L8.91346 0H7.73077ZM8.76923 2.30769C9.51562 2.96394 10.774 4.15024 12.3462 6.08654C14.5168 8.76202 16.6154 12.3065 16.6154 15.6923C16.6154 17.3113 16.3305 18.8798 15.2885 20.0481C15.0649 20.3005 14.7945 20.5457 14.4808 20.7692C14.9784 19.3305 14.8702 17.6935 14.5385 16.0673C14.1599 14.2103 13.4423 12.3462 12.75 10.8462C12.0577 9.34615 11.4663 8.28606 10.9615 7.70192L10.7019 7.38461H8.91346L9.25962 8.56731C10.226 11.7079 9.71755 13.8462 9.17308 14.4808C8.90264 14.7981 8.78365 14.8269 8.50962 14.7404C8.23558 14.6538 7.74159 14.2969 7.26923 13.4135L6.57692 12.1154L5.71154 13.2981C3.98437 15.6238 3.32091 18.1731 3.89423 20.3077C3.94471 20.4952 4.02404 20.6791 4.09615 20.8558C3.82212 20.6466 3.56611 20.4339 3.34615 20.1923C2.3149 19.0565 1.84615 17.5385 1.84615 16.0673C1.84615 12.7248 3.41827 10.0024 5.16346 7.61539C6.58414 5.67188 7.96875 4.03125 8.76923 2.30769Z" fill="#FE7200"/>
</svg>
