<svg width="48" height="24" viewBox="0 0 48 24" fill="none" xmlns="http://www.w3.org/2000/svg">
<path d="M44 0H4C1.8 0 0 1.8 0 4V20C0 22.2 1.8 24 4 24H44C46.2 24 48 22.2 48 20V4C48 1.8 46.2 0 44 0Z" fill="#FFC107"/>
<path fill-rule="evenodd" clip-rule="evenodd" d="M10.7001 5H7.6001V18.3H10.7001V5ZM22.7001 18.3V5H18.3001L17.5001 11.3L16.4001 5H12.4001V18.3H15.3001V10.9L16.6001 18.3H18.6001L19.9001 10.9V18.3H22.7001ZM24.4001 5H28.1001C30.2803 5 30.5946 5.19643 31.3787 5.68661L31.4001 5.7C31.9001 6 32.3001 6.8 32.3001 7.7V15.6C32.3001 16.3 32.0001 17 31.4001 17.4C30.9001 17.7 30.1001 18.1 28.1001 18.1H24.4001V5ZM27.5001 15.9C28.1001 15.9 28.8001 15.9 28.8001 15.3V7.6C28.8001 7 28.1001 7 27.5001 7V15.9ZM33.8001 5V18.3H36.6001C36.6001 18.3 36.8001 17.4 37.0001 17.6C37.1723 17.6 37.4742 17.7112 37.8181 17.8379C38.2731 18.0054 38.8014 18.2 39.2001 18.2C39.9001 18.2 40.3001 18.2 40.7001 18C41.3001 17.6 41.4001 17.3 41.4001 16.7V8.9C41.4001 7.8 40.3001 7.1 39.4001 7.1C38.5001 7.1 37.6001 7.7 37.2001 8V5H33.8001ZM37.8001 8.6C37.4001 8.6 37.4001 8.8 37.4001 9.2V15.8C37.4001 16.2 37.6001 16.4 37.8001 16.4C38.2001 16.4 38.2001 16.2 38.2001 15.8V9.2C38.2001 8.8 38.0001 8.6 37.8001 8.6Z" fill="#263238"/>
</svg>
