<?xml version="1.0" encoding="UTF-8"?>
<svg width="32px" height="18px" viewBox="0 0 32 18" version="1.1" xmlns="http://www.w3.org/2000/svg" xmlns:xlink="http://www.w3.org/1999/xlink">
    <title>IMDB</title>
    <g id="Symbols" stroke="none" stroke-width="1" fill="none" fill-rule="evenodd">
        <g id="Components-/-Movies-/-Ratings" transform="translate(-123.000000, -3.000000)" fill="#FCFFFF">
            <g id="Group-3-Copy" transform="translate(123.000000, 0.000000)">
                <g id="Assets-/-Icons-/-Rating-/-IMDB">
                    <g id="icons8-imdb" transform="translate(0.000000, 3.000000)">
                        <path d="M0,0 L0,18 L32,18 L32,0 L0,0 Z M2,2 L30,2 L30,16 L2,16 L2,2 Z M5,4.6875 L5,13.3125 L7,13.3125 L7,4.6875 L5,4.6875 Z M8.09375,4.6875 L8.09375,13.3125 L10,13.3125 L10,8.5 L10.90625,13.3125 L12.1875,13.3125 L13,8.5 L13,13.3125 L14.8125,13.3125 L14.8125,4.6875 L12,4.6875 L11.5,8.8125 L10.8125,4.6875 L8.09375,4.6875 Z M15.90625,4.6875 L15.90625,13.1875 L18.3125,13.1875 C19.613281,13.1875 20.101563,12.988281 20.5,12.6875 C20.898438,12.488281 21.09375,12 21.09375,11.5 L21.09375,6.3125 C21.09375,5.710938 20.898438,5.199219 20.5,5 C20,4.800781 19.8125,4.6875 18.3125,4.6875 L15.90625,4.6875 Z M22.09375,4.8125 L22.09375,13.3125 L23.90625,13.3125 C23.90625,13.3125 23.992188,12.710938 24.09375,12.8125 C24.292969,12.8125 25.101563,13.1875 25.5,13.1875 C26,13.1875 26.199219,13.195313 26.5,13.09375 C26.898438,12.894531 27,12.613281 27,12.3125 L27,7.3125 C27,6.613281 26.289063,6.09375 25.6875,6.09375 C25.085938,6.09375 24.511719,6.488281 24.3125,6.6875 L24.3125,4.8125 L22.09375,4.8125 Z M18,6 C18.398438,6 18.8125,6.007813 18.8125,6.40625 L18.8125,11.40625 C18.8125,11.804688 18.300781,11.8125 18,11.8125 L18,6 Z M24.59375,7 C24.695313,7 24.8125,7.105469 24.8125,7.40625 L24.8125,11.6875 C24.8125,11.886719 24.792969,12.09375 24.59375,12.09375 C24.492188,12.09375 24.40625,11.988281 24.40625,11.6875 L24.40625,7.40625 C24.40625,7.207031 24.394531,7 24.59375,7 Z" id="Shape" fill-rule="nonzero"></path>
                    </g>
                </g>
            </g>
        </g>
    </g>
</svg>
