<?xml version="1.0" encoding="UTF-8"?>
<svg width="24px" height="24px" viewBox="0 0 24 24" version="1.1" xmlns="http://www.w3.org/2000/svg" xmlns:xlink="http://www.w3.org/1999/xlink">
    <title>Rotten Tomatoes Critics</title>
    <g id="Symbols" stroke="none" stroke-width="1" fill="none" fill-rule="evenodd">
        <g id="Components-/-Movies-/-Ratings" fill="#FCFFFF">
            <g id="Group-3">
                <g id="Assets-/-Icons-/-Rating-/-RT">
                    <g id="icons8-tomato">
                        <path d="M13.6388889,0.861111111 C13.6388889,0.861111111 12.8402782,1.07986133 12.1111111,1.75 C11.5694444,2.25 11.0173609,3.03124978 10.7777778,4.11111111 C9.14930578,2.72916711 7.03124978,4.75694489 6.22222222,2.66666667 C6.22222222,6.22569422 9.03124978,5.16666667 10.6666667,5.16666667 C7.69791644,5.76388889 7.70833333,7.52430578 5.33333333,8 C9.36111111,10.1388889 10.4305556,7.89583378 11.25,5.69444444 C11.121528,6.55555556 10.128472,9.16666667 13.3333333,10.6666667 C14.2604169,8.11458311 13.1145831,6.993056 12.25,5.47222222 C13.628472,7.23958311 15.3125004,10.503472 18.6666667,8 C16.7013893,7.48611111 16.6076391,5.868056 14.1666667,5.44444444 C15.996528,5.52083378 16.5243058,6.01388889 17.7777778,3.55555556 C15.8055556,4.57638933 14.871528,2.31250044 12.5277778,4.69444444 C12.5208338,4.69791644 12.5069449,4.69097244 12.5,4.69444444 C12.621528,3.85416711 12.9652782,3.368056 13.3055556,3.05555556 C13.7256942,2.67013867 14.0833333,2.58333333 14.0833333,2.58333333 L13.6388889,0.861111111 Z M5.58333333,4.27777778 C4.64930578,4.503472 3.71527822,4.85416711 2.88888889,5.47222222 C0.975694222,6.89583378 0,9.25 0,12.4444444 C0,17.8611111 2.57986133,20.9166667 5.30555556,22.4166667 C8.03124978,23.9166667 10.8263893,24 11.5555556,24 C12.2847227,24 15.0798613,23.9166667 17.8055556,22.4166667 C20.5312498,20.9166667 23.1111111,17.8611111 23.1111111,12.4444444 C23.1111111,9.25 22.1354169,6.89583378 20.2222222,5.47222222 C19.618056,5.02083378 18.9548613,4.70486133 18.2777778,4.47222222 C17.9131947,5.121528 17.5590276,5.618056 17.1111111,5.94444444 C17.128472,5.96180533 17.1493058,5.98263911 17.1666667,6 C17.878472,6.17708356 18.5625004,6.46527822 19.1666667,6.91666667 C20.6006942,7.98611111 21.3333333,9.84722222 21.3333333,12.4444444 C21.3333333,17.3194444 19.2326391,19.6006942 16.9444444,20.8611111 C14.6562498,22.121528 12.1145831,22.2222222 11.5555556,22.2222222 C10.996528,22.2222222 8.45486133,22.121528 6.16666667,20.8611111 C3.878472,19.6006942 1.77777778,17.3194444 1.77777778,12.4444444 C1.77777778,9.84722222 2.51041689,7.98958311 3.94444444,6.91666667 C4.80555556,6.27430578 5.84027822,5.96180533 6.86111111,5.83333333 C6.18750044,5.47916711 5.79861156,4.92013867 5.58333333,4.27777778 Z" id="Shape" fill-rule="nonzero"></path>
                    </g>
                </g>
            </g>
        </g>
    </g>
</svg>
