<svg width="25" height="24" viewBox="0 0 25 24" fill="none" xmlns="http://www.w3.org/2000/svg">
<path d="M12.447 4.94645C12.447 4.94645 1.54569 2.79934 0.156219 11.5646C-1.23062 20.3311 7.00819 23.0747 9.38845 23.5999C11.7674 24.1245 22.4582 25.5683 24.7009 16.0696C26.5601 8.19861 19.3871 3.45633 13.2411 5.12259L12.447 4.94645Z" fill="#FF3D00"/>
<path d="M13.2634 4.70335L12.4666 4.52273C12.4666 4.52273 4.48957 2.91629 1.29297 8.06775C2.34662 8.71218 4.07432 9.46842 4.07432 9.46842C5.26529 9.98317 6.41004 10.2452 7.4769 10.2452C8.53055 10.2452 9.49574 9.99442 10.3355 9.51871C10.6121 10.8572 11.3753 12.2651 13.1518 13.3529L14.4425 14.1428L15.0499 12.7541C15.5589 11.5896 15.8124 10.619 15.8744 9.74565C16.5577 10.0904 17.3182 10.3107 18.1488 10.3107C19.145 10.3107 20.1524 9.99508 21.1427 9.37447C21.1427 9.37447 22.4426 8.6222 23.2757 7.98637C21.0106 5.01366 16.9538 3.67716 13.2634 4.70335Z" fill="#DD2C00"/>
<path d="M14.0444 12.4286C15.3182 9.56092 14.7813 8.25917 13.54 5.87329C15.2385 8.05597 17.5051 10.4622 20.6895 8.49579C18.2667 7.86065 18.7053 6.02339 15.6963 5.50229C17.953 5.59537 19.1465 6.29147 20.6895 3.25209C18.26 4.5132 16.8406 1.74977 13.6835 4.5971C13.1506 4.92352 12.5911 4.09502 12.1638 4.54401C9.88453 0.807218 7.17598 4.1468 6.07023 1.28571C6.07023 5.68517 10.351 4.48829 11.3863 5.21848C7.35673 4.88354 7.66706 7.9085 4.74121 8.49579C8.59006 10.1344 11.088 8.53708 12.0987 5.81429C11.9405 6.87811 10.5796 10.3409 14.0444 12.4286Z" fill="#4CAF50"/>
<path d="M12.0696 5.3733C12.0528 5.50464 12.323 6 13.1997 6C14.2491 6 13.8469 5.46063 13.8469 5.46063C13.8469 5.46063 13.7506 2.34711 15.9482 0.289656C15.3902 -0.187039 14.8031 0.0683095 14.8031 0.0683095C14.8031 0.0683095 12.4569 2.56646 12.0696 5.3733Z" fill="#4CAF50"/>
</svg>
